<?xml version="1.0" encoding="UTF-8" standalone="no"?>
<svg
   viewBox="0 0 140.78 152.60265"
   version="1.1"
   id="svg41"
   sodipodi:docname="Unbenannt-1-02.svg"
   width="140.78"
   height="152.60265"
   inkscape:version="1.3.2 (091e20e, 2023-11-25)"
   xmlns:inkscape="http://www.inkscape.org/namespaces/inkscape"
   xmlns:sodipodi="http://sodipodi.sourceforge.net/DTD/sodipodi-0.dtd"
   xmlns="http://www.w3.org/2000/svg"
   xmlns:svg="http://www.w3.org/2000/svg">
  <sodipodi:namedview
     id="namedview41"
     pagecolor="#ffffff"
     bordercolor="#000000"
     borderopacity="0.25"
     inkscape:showpageshadow="2"
     inkscape:pageopacity="0.0"
     inkscape:pagecheckerboard="0"
     inkscape:deskcolor="#d1d1d1"
     inkscape:zoom="1.0488889"
     inkscape:cx="71.504237"
     inkscape:cy="75.794492"
     inkscape:window-width="1512"
     inkscape:window-height="866"
     inkscape:window-x="0"
     inkscape:window-y="38"
     inkscape:window-maximized="1"
     inkscape:current-layer="svg41" />
  <defs
     id="defs1">
    <style
       id="style1">.cls-1{fill:#fff;}.cls-2{stroke:#1d1d1b;}.cls-2,.cls-3,.cls-4{fill:none;stroke-miterlimit:10;}.cls-3{stroke:#fff;}.cls-3,.cls-4{stroke-width:2px;}.cls-4{stroke:#000;}</style>
  </defs>
  <g
     id="Ebene_4"
     transform="translate(-66.4,-36.03)">
    <g
       id="g18">
      <g
         id="g7">
        <path
           class="cls-1"
           d="m 136.55,167.03 c 0,0 -0.66,0 -1.46,0 -0.8,0 -2.54,0.38 -3.87,0.85 -1.33,0.47 -3.18,0.93 -4.12,1.02 -0.94,0.09 -2.45,-0.08 -3.35,-0.38 -0.9,-0.3 -2.14,-1.01 -2.75,-1.59 -0.61,-0.58 -1.69,-1.66 -2.39,-2.41 -0.7,-0.75 -2.31,-2.99 -3.59,-4.98 -1.28,-1.99 -3.2,-4.92 -4.26,-6.51 -1.06,-1.59 -3.81,-5.15 -6.11,-7.9 -2.3,-2.75 -5.6,-6.52 -7.34,-8.38 -1.74,-1.86 -5.1,-4.97 -7.47,-6.92 -2.37,-1.95 -5.82,-5.03 -7.67,-6.84 -1.85,-1.81 -4.05,-4.11 -4.9,-5.1 -0.85,-0.99 -2.44,-3.11 -3.53,-4.7 -1.09,-1.59 -2.46,-3.81 -3.05,-4.92 -0.59,-1.11 -1.46,-3.1 -1.93,-4.4 -0.47,-1.3 -1.09,-3.58 -1.37,-5.07 -0.28,-1.49 -0.51,-5.3 -0.51,-8.47 0,-3.17 0.75,-7.72 1.67,-10.12 0.92,-2.4 1.63,-5.03 1.58,-5.84 -0.05,-0.81 -0.23,-3.31 -0.41,-5.55 -0.18,-2.24 -0.29,-5.9 -0.25,-8.14 0.04,-2.24 0.27,-4.99 0.51,-6.1 0.24,-1.11 0.77,-2.88 1.18,-3.91 0.41,-1.03 1.29,-2.77 1.95,-3.86 0.66,-1.09 2.24,-2.67 3.51,-3.51 1.27,-0.84 3.45,-1.85 4.85,-2.25 1.4,-0.4 4.04,-0.69 5.86,-0.65 1.82,0.04 4.65,0.75 6.26,1.58 1.61,0.83 3.55,2.43 4.28,3.57 0.73,1.14 2.12,3.85 3.08,6.03 0.96,2.18 2.6,5.88 3.65,8.22 1.05,2.34 2.48,5.39 3.19,6.78 0.71,1.39 1.69,3.23 2.19,4.09 0.5,0.86 1.42,2.24 2.03,3.06 0.61,0.82 1.67,2.03 2.33,2.7 0.66,0.67 1.82,1.7 2.57,2.27 0.75,0.57 1.85,0.03 2.44,-1.2 0.59,-1.23 1.63,-3.02 2.31,-3.97 0.68,-0.95 1.93,-2.4 2.78,-3.24 0.85,-0.84 2.45,-2.12 3.53,-2.84 1.08,-0.72 2.78,-1.57 3.75,-1.88 0.97,-0.31 2.49,-0.65 3.38,-0.76 0.89,-0.11 2.35,-0.11 3.25,0 0.9,0.11 2.44,0.46 3.42,0.77 0.98,0.31 2.66,1.15 3.75,1.88 1.09,0.73 2.68,2 3.53,2.84 0.85,0.84 2.11,2.3 2.78,3.24 0.67,0.94 1.72,2.73 2.31,3.97 0.59,1.24 1.68,1.78 2.43,1.2 0.75,-0.58 1.91,-1.6 2.57,-2.28 0.66,-0.68 1.71,-1.89 2.33,-2.7 0.62,-0.81 1.53,-2.19 2.03,-3.06 0.5,-0.87 1.49,-2.71 2.2,-4.1 0.71,-1.39 2.15,-4.43 3.19,-6.77 1.04,-2.34 2.68,-6.04 3.64,-8.22 0.96,-2.18 2.34,-4.89 3.08,-6.03 0.74,-1.14 2.67,-2.74 4.28,-3.57 1.61,-0.83 4.44,-1.54 6.27,-1.58 1.83,-0.04 4.47,0.25 5.87,0.65 1.4,0.4 3.58,1.41 4.84,2.25 1.26,0.84 2.84,2.42 3.5,3.51 0.66,1.09 1.54,2.83 1.95,3.86 0.41,1.03 0.94,2.79 1.18,3.91 0.24,1.12 0.47,3.87 0.51,6.11 0.04,2.24 -0.06,5.9 -0.24,8.14 -0.18,2.24 -0.36,4.73 -0.4,5.55 -0.04,0.82 0.67,3.44 1.58,5.84 0.91,2.4 1.66,6.96 1.66,10.12 0,3.16 -0.23,6.98 -0.51,8.47 -0.28,1.49 -0.89,3.76 -1.36,5.06 -0.47,1.3 -1.34,3.27 -1.93,4.39 -0.59,1.12 -1.97,3.34 -3.06,4.93 -1.09,1.59 -2.68,3.7 -3.52,4.7 -0.84,1 -3.05,3.29 -4.9,5.11 -1.85,1.82 -5.3,4.89 -7.67,6.84 -2.37,1.95 -5.74,5.06 -7.48,6.92 -1.74,1.86 -5.04,5.63 -7.34,8.39 -2.3,2.76 -5.05,6.31 -6.1,7.91 -1.05,1.6 -2.98,4.52 -4.26,6.51 -1.28,1.99 -2.9,4.23 -3.59,4.98 -0.69,0.75 -1.76,1.84 -2.38,2.41 -0.62,0.57 -1.86,1.29 -2.76,1.58 -0.9,0.29 -2.41,0.46 -3.35,0.38 -0.94,-0.08 -2.8,-0.54 -4.12,-1.01 -1.32,-0.47 -3.17,-0.85 -4.1,-0.85 -0.93,0 -1.69,0 -1.69,0 z m 11.28,-70.88 c -0.1,-0.09 -2.17,-1.9 -4.58,-4.01 -2.41,-2.11 -4.85,-3.91 -5.41,-3.99 -0.56,-0.08 -1.04,-0.14 -1.06,-0.14 -0.02,0 -0.5,0.06 -1.05,0.13 -0.55,0.07 -2.99,1.87 -5.41,3.99 -2.42,2.12 -4.48,3.93 -4.58,4.01 -0.1,0.08 -2.21,0.78 -4.68,1.53 -2.47,0.75 -4.64,1.36 -4.82,1.34 -0.18,-0.02 -1.93,-0.16 -3.9,-0.33 -1.97,-0.17 -9.11,-1.45 -15.88,-2.86 -6.77,-1.41 -13.43,-2.64 -14.82,-2.73 -1.39,-0.09 -2.96,0.26 -3.5,0.76 -0.54,0.5 -0.86,1.63 -0.73,2.49 0.13,0.86 0.89,2.87 1.69,4.46 0.8,1.59 2.42,4.09 3.61,5.55 1.19,1.46 5.6,6.03 9.8,10.16 4.2,4.13 8.65,8.6 9.89,9.93 1.24,1.33 6.25,8.49 11.13,15.91 4.88,7.42 9.57,14.4 10.41,15.51 0.84,1.11 2.09,2.24 2.77,2.53 0.68,0.29 2.59,0.16 4.22,-0.28 1.63,-0.44 3.54,-0.81 4.24,-0.81 0.7,0 1.28,0 1.28,0 0,0 0.72,0 1.6,0 0.88,0 2.94,0.36 4.58,0.81 1.64,0.45 3.54,0.57 4.22,0.28 0.68,-0.29 1.93,-1.42 2.77,-2.53 0.84,-1.11 5.52,-8.08 10.4,-15.51 4.88,-7.42 9.89,-14.58 11.13,-15.91 1.24,-1.33 5.69,-5.79 9.89,-9.92 4.2,-4.13 8.61,-8.71 9.81,-10.17 1.2,-1.46 2.82,-3.95 3.61,-5.55 0.79,-1.6 1.55,-3.6 1.68,-4.46 0.13,-0.86 -0.19,-1.98 -0.73,-2.49 -0.54,-0.51 -2.1,-0.85 -3.49,-0.77 -1.39,0.08 -8.06,1.32 -14.83,2.73 -6.77,1.41 -13.91,2.7 -15.88,2.86 -1.97,0.16 -3.72,0.31 -3.9,0.33 -0.18,0.02 -2.34,-0.59 -4.81,-1.34 -2.47,-0.75 -4.59,-1.44 -4.69,-1.53 z m 49.8,-25.28 c 0.09,-0.74 0.17,-2.11 0.17,-3.05 0,-0.94 -0.11,-2.1 -0.24,-2.58 -0.13,-0.48 -0.43,-1.51 -0.65,-2.31 -0.22,-0.8 -0.75,-2.08 -1.18,-2.86 -0.43,-0.78 -1.17,-1.95 -1.66,-2.6 -0.49,-0.65 -1.38,-1.42 -1.99,-1.72 -0.61,-0.3 -1.76,-0.49 -2.57,-0.43 -0.81,0.06 -2.17,0.56 -3.02,1.1 -0.85,0.54 -2.09,1.6 -2.74,2.35 -0.65,0.75 -1.61,2.17 -2.15,3.16 -0.54,0.99 -1.64,3.47 -2.47,5.52 -0.83,2.05 -2.25,5.24 -3.16,7.1 -0.91,1.86 -1.72,3.49 -1.79,3.64 -0.07,0.15 -0.12,0.45 -0.1,0.67 0.02,0.22 0.17,0.72 0.35,1.1 0.18,0.38 0.7,1.02 1.17,1.42 0.47,0.4 1.46,1.04 2.19,1.42 0.73,0.38 2.04,0.92 2.9,1.2 0.86,0.28 2.16,0.59 2.9,0.69 0.74,0.1 1.91,0.15 2.6,0.1 0.69,-0.05 1.82,-0.26 2.52,-0.48 0.7,-0.22 1.86,-0.82 2.59,-1.34 0.73,-0.52 1.75,-1.42 2.25,-2.01 0.5,-0.59 1.19,-1.58 1.53,-2.19 0.34,-0.61 0.87,-1.82 1.18,-2.68 0.31,-0.86 0.7,-2.08 0.88,-2.73 0.18,-0.65 0.39,-1.78 0.49,-2.51 z m -98.14,8 c 0.01,-0.22 -0.04,-0.52 -0.11,-0.67 -0.07,-0.15 -0.88,-1.79 -1.8,-3.65 -0.92,-1.86 -2.33,-5.05 -3.16,-7.1 -0.83,-2.05 -1.93,-4.53 -2.47,-5.52 -0.54,-0.99 -1.5,-2.41 -2.14,-3.16 -0.64,-0.75 -1.88,-1.81 -2.73,-2.35 -0.85,-0.54 -2.21,-1.04 -3.03,-1.09 -0.82,-0.05 -1.97,0.14 -2.58,0.43 -0.61,0.29 -1.5,1.06 -1.98,1.71 -0.48,0.65 -1.23,1.81 -1.66,2.59 -0.43,0.78 -0.96,2.07 -1.18,2.87 -0.22,0.8 -0.51,1.83 -0.64,2.31 -0.13,0.48 -0.24,1.63 -0.24,2.57 0,0.94 0.07,2.32 0.16,3.06 0.09,0.74 0.3,1.87 0.48,2.52 0.18,0.65 0.57,1.88 0.89,2.73 0.32,0.85 0.84,2.06 1.18,2.67 0.34,0.61 1.02,1.61 1.52,2.2 0.5,0.59 1.51,1.5 2.25,2.01 0.74,0.51 1.91,1.12 2.6,1.34 0.69,0.22 1.82,0.44 2.51,0.48 0.69,0.04 1.86,0 2.6,-0.1 0.74,-0.1 2.04,-0.41 2.89,-0.69 0.85,-0.28 2.16,-0.82 2.9,-1.2 0.74,-0.38 1.72,-1.02 2.19,-1.42 0.47,-0.4 1,-1.04 1.18,-1.42 0.18,-0.38 0.34,-0.88 0.35,-1.1 z"
           id="path1" />
        <path
           d="m 197.54,65.25 c 0.13,0.47 0.24,1.63 0.24,2.58 0,0.95 -0.07,2.32 -0.17,3.05 -0.1,0.73 -0.31,1.87 -0.49,2.51 -0.18,0.64 -0.57,1.87 -0.88,2.73 -0.31,0.86 -0.84,2.06 -1.18,2.68 -0.34,0.62 -1.03,1.61 -1.53,2.19 -0.5,0.58 -1.51,1.49 -2.25,2.01 -0.74,0.52 -1.9,1.12 -2.59,1.34 -0.69,0.22 -1.82,0.44 -2.52,0.48 -0.7,0.04 -1.86,0 -2.6,-0.1 -0.74,-0.1 -2.04,-0.41 -2.9,-0.69 -0.86,-0.28 -2.16,-0.82 -2.9,-1.2 -0.74,-0.38 -1.72,-1.02 -2.19,-1.42 -0.47,-0.4 -1,-1.04 -1.17,-1.42 -0.17,-0.38 -0.33,-0.88 -0.35,-1.1 -0.02,-0.22 0.03,-0.52 0.1,-0.67 0.07,-0.15 0.88,-1.78 1.79,-3.64 0.91,-1.86 2.33,-5.05 3.16,-7.1 0.83,-2.05 1.93,-4.53 2.47,-5.52 0.54,-0.99 1.5,-2.41 2.15,-3.16 0.65,-0.75 1.88,-1.81 2.74,-2.35 0.86,-0.54 2.22,-1.04 3.02,-1.1 0.8,-0.06 1.97,0.13 2.57,0.43 0.6,0.3 1.5,1.07 1.99,1.72 0.49,0.65 1.23,1.81 1.66,2.6 0.43,0.79 0.95,2.07 1.18,2.86 0.23,0.79 0.51,1.83 0.65,2.31 z"
           id="path2" />
        <path
           d="m 136.45,159.31 c 0,0 -0.57,0 -1.28,0 -0.71,0 -2.61,0.36 -4.24,0.81 -1.63,0.45 -3.53,0.57 -4.22,0.28 -0.69,-0.29 -1.94,-1.42 -2.77,-2.53 -0.83,-1.11 -5.52,-8.09 -10.41,-15.51 -4.88,-7.42 -9.89,-14.58 -11.13,-15.91 -1.24,-1.33 -5.69,-5.79 -9.89,-9.93 -4.2,-4.14 -8.61,-8.71 -9.8,-10.16 -1.19,-1.45 -2.82,-3.95 -3.61,-5.55 -0.79,-1.6 -1.56,-3.6 -1.69,-4.46 -0.13,-0.86 0.19,-1.98 0.73,-2.49 0.54,-0.51 2.1,-0.85 3.5,-0.76 1.4,0.09 8.06,1.32 14.82,2.73 6.76,1.41 13.91,2.7 15.88,2.86 1.97,0.16 4.36,2.92 5.32,6.14 0.96,3.22 2.24,8.44 2.86,11.62 0.62,3.18 2.09,2.94 3.27,-0.53 1.18,-3.47 2.14,-9.38 2.14,-13.12 0,-3.74 1.98,-8.54 4.4,-10.66 2.42,-2.12 4.85,-3.92 5.41,-3.99 0.56,-0.07 1.03,-0.13 1.05,-0.13 0.02,0 0.5,0.07 1.06,0.14 0.56,0.07 3,1.87 5.41,3.99 2.41,2.12 4.39,6.91 4.39,10.66 0,3.75 0.97,9.65 2.15,13.13 1.18,3.48 2.65,3.72 3.27,0.53 0.62,-3.19 1.91,-8.41 2.86,-11.62 0.95,-3.21 3.35,-5.97 5.31,-6.14 1.96,-0.17 9.11,-1.45 15.88,-2.86 6.77,-1.41 13.43,-2.64 14.83,-2.73 1.4,-0.09 2.96,0.26 3.49,0.77 0.53,0.51 0.86,1.63 0.73,2.49 -0.13,0.86 -0.89,2.87 -1.68,4.46 -0.79,1.59 -2.42,4.09 -3.61,5.55 -1.19,1.46 -5.61,6.03 -9.81,10.17 -4.2,4.14 -8.65,8.6 -9.89,9.92 -1.24,1.32 -6.25,8.49 -11.13,15.91 -4.88,7.42 -9.57,14.4 -10.4,15.51 -0.83,1.11 -2.09,2.24 -2.77,2.53 -0.68,0.29 -2.58,0.16 -4.22,-0.28 -1.64,-0.44 -3.7,-0.81 -4.58,-0.81 -0.88,0 -1.6,0 -1.6,0 z"
           id="path3" />
        <path
           d="m 138.39,64.83 c -0.91,-0.12 -2.37,-0.12 -3.25,0 -0.88,0.12 -2.4,0.46 -3.38,0.76 -0.98,0.3 -2.66,1.15 -3.75,1.88 -1.09,0.73 -2.68,2 -3.53,2.84 -0.85,0.84 -2.11,2.3 -2.78,3.24 -0.67,0.94 -1.71,2.73 -2.31,3.97 -0.6,1.24 -1.69,1.78 -2.44,1.2 -0.75,-0.58 -1.91,-1.6 -2.57,-2.27 -0.66,-0.67 -1.71,-1.89 -2.33,-2.7 -0.62,-0.81 -1.53,-2.19 -2.03,-3.06 -0.5,-0.87 -1.49,-2.71 -2.19,-4.09 -0.7,-1.38 -2.14,-4.43 -3.19,-6.78 -1.05,-2.35 -2.69,-6.04 -3.65,-8.22 -0.96,-2.18 -2.34,-4.89 -3.08,-6.03 -0.74,-1.14 0.66,-2.45 3.11,-2.92 2.45,-0.47 6.67,-1.4 9.38,-2.06 2.71,-0.66 7.54,-1.68 10.74,-2.25 3.2,-0.57 8.01,-1.21 10.7,-1.41 2.69,-0.2 7.12,-0.2 9.85,0 2.73,0.2 7.57,0.85 10.77,1.42 3.2,0.57 8.03,1.59 10.74,2.25 2.71,0.66 6.93,1.59 9.38,2.06 2.45,0.47 3.84,1.78 3.1,2.92 -0.74,1.14 -2.12,3.85 -3.08,6.03 -0.96,2.18 -2.59,5.88 -3.64,8.22 -1.05,2.34 -2.48,5.39 -3.19,6.77 -0.71,1.38 -1.7,3.23 -2.2,4.1 -0.5,0.87 -1.42,2.24 -2.03,3.06 -0.61,0.82 -1.67,2.03 -2.33,2.7 -0.66,0.67 -1.82,1.7 -2.57,2.28 -0.75,0.58 -1.85,0.03 -2.43,-1.2 -0.58,-1.23 -1.63,-3.02 -2.31,-3.97 -0.68,-0.95 -1.93,-2.4 -2.78,-3.24 -0.85,-0.84 -2.44,-2.12 -3.53,-2.84 -1.09,-0.72 -2.78,-1.57 -3.75,-1.88 -0.97,-0.31 -2.51,-0.65 -3.42,-0.77 z"
           id="path4" />
        <path
           class="cls-1"
           d="m 157.33,99.03 c 0.17,-0.02 -0.47,2.6 -1.42,5.81 -0.95,3.21 -2.24,8.44 -2.86,11.62 -0.62,3.18 -2.09,2.94 -3.27,-0.53 -1.18,-3.47 -2.15,-9.38 -2.15,-13.13 0,-3.75 0.09,-6.74 0.19,-6.65 0.1,0.09 2.22,0.78 4.69,1.53 2.47,0.75 4.64,1.36 4.81,1.34 z"
           id="path5" />
        <path
           class="cls-1"
           d="m 125.73,96.15 c 0.1,-0.09 0.18,2.9 0.18,6.65 0,3.75 -0.97,9.65 -2.14,13.12 -1.17,3.47 -2.65,3.72 -3.27,0.53 -0.62,-3.19 -1.91,-8.41 -2.86,-11.62 -0.95,-3.21 -1.59,-5.83 -1.42,-5.81 0.17,0.02 2.35,-0.59 4.82,-1.34 2.47,-0.75 4.58,-1.44 4.68,-1.53 z"
           id="path6" />
        <path
           d="m 97.58,74.56 c 0.91,1.86 1.72,3.5 1.8,3.65 0.08,0.15 0.12,0.45 0.11,0.67 -0.01,0.22 -0.17,0.71 -0.35,1.1 -0.18,0.39 -0.71,1.02 -1.18,1.42 -0.47,0.4 -1.46,1.04 -2.19,1.42 -0.73,0.38 -2.04,0.92 -2.9,1.2 -0.86,0.28 -2.16,0.59 -2.89,0.69 -0.73,0.1 -1.9,0.15 -2.6,0.1 -0.7,-0.05 -1.82,-0.26 -2.51,-0.48 -0.69,-0.22 -1.86,-0.82 -2.6,-1.34 -0.74,-0.52 -1.75,-1.42 -2.25,-2.01 -0.5,-0.59 -1.19,-1.58 -1.52,-2.2 -0.33,-0.62 -0.87,-1.82 -1.18,-2.67 -0.31,-0.85 -0.71,-2.08 -0.89,-2.73 -0.18,-0.65 -0.39,-1.78 -0.48,-2.52 -0.09,-0.74 -0.16,-2.11 -0.16,-3.06 0,-0.95 0.11,-2.1 0.24,-2.57 0.13,-0.47 0.42,-1.51 0.64,-2.31 0.22,-0.8 0.75,-2.09 1.18,-2.87 0.43,-0.78 1.18,-1.95 1.66,-2.59 0.48,-0.64 1.38,-1.42 1.98,-1.71 0.6,-0.29 1.76,-0.49 2.58,-0.43 0.82,0.06 2.17,0.55 3.03,1.09 0.86,0.54 2.08,1.6 2.73,2.35 0.65,0.75 1.61,2.17 2.14,3.16 0.53,0.99 1.64,3.47 2.47,5.52 0.83,2.05 2.25,5.24 3.16,7.1 z"
           id="path7" />
      </g>
      <g
         id="g17">
        <path
           class="cls-2"
           d="m 136.74,88.01 -1.01,0.14 c -0.56,0.07 -2.99,1.87 -5.41,3.99 -2.42,2.12 -4.48,3.93 -4.58,4.01 -0.1,0.08 -2.21,0.78 -4.68,1.53 -2.47,0.75 -4.64,1.36 -4.82,1.34 -0.18,-0.02 -1.93,-0.16 -3.9,-0.33 -1.97,-0.17 -9.11,-1.45 -15.88,-2.86 -6.77,-1.41 -13.43,-2.64 -14.82,-2.73 -1.39,-0.09 -2.96,0.26 -3.5,0.76 -0.54,0.5 -0.86,1.63 -0.73,2.49 0.13,0.86 0.89,2.87 1.69,4.46 0.8,1.59 2.42,4.09 3.61,5.55 1.19,1.46 5.6,6.03 9.8,10.16 4.2,4.13 8.65,8.6 9.89,9.93 1.24,1.33 6.25,8.49 11.13,15.91 4.88,7.42 9.57,14.4 10.41,15.51 0.84,1.11 2.09,2.24 2.77,2.53 0.68,0.29 2.59,0.16 4.22,-0.28 1.63,-0.44 3.54,-0.81 4.24,-0.81 h 1.95"
           id="path8" />
        <path
           class="cls-2"
           d="m 115.91,98.99 1.74,5.84 c 0.95,3.21 2.24,8.44 2.86,11.62 0.62,3.18 2.09,2.94 3.27,-0.53 1.18,-3.47 2.14,-9.38 2.14,-13.12 v -7.12"
           id="path9" />
        <path
           class="cls-2"
           d="m 136.9,36.53 h -0.09 c -0.05,0 -2.29,0.18 -4.98,0.38 -2.69,0.2 -7.5,0.84 -10.7,1.41 -3.2,0.57 -8.03,1.59 -10.74,2.25 -2.71,0.66 -6.93,1.59 -9.38,2.06 -2.45,0.47 -5.78,0.18 -7.4,-0.65 -1.62,-0.83 -4.44,-1.54 -6.26,-1.58 -1.82,-0.04 -4.47,0.25 -5.86,0.65 -1.39,0.4 -3.58,1.41 -4.85,2.25 -1.27,0.84 -2.85,2.42 -3.51,3.51 -0.66,1.09 -1.54,2.83 -1.95,3.86 -0.41,1.03 -0.94,2.79 -1.18,3.91 -0.24,1.12 -0.47,3.87 -0.51,6.1 -0.04,2.23 0.07,5.9 0.25,8.14 0.18,2.24 0.36,4.73 0.41,5.55 0.05,0.82 -0.67,3.44 -1.58,5.84 -0.91,2.4 -1.67,6.96 -1.67,10.12 0,3.16 0.23,6.98 0.51,8.47 0.28,1.49 0.9,3.77 1.37,5.07 0.47,1.3 1.34,3.28 1.93,4.4 0.59,1.12 1.96,3.34 3.05,4.92 1.09,1.58 2.68,3.7 3.53,4.7 0.85,1 3.06,3.29 4.9,5.1 1.84,1.81 5.29,4.89 7.67,6.84 2.38,1.95 5.73,5.07 7.47,6.92 1.74,1.85 5.04,5.63 7.34,8.38 2.3,2.75 5.05,6.31 6.11,7.9 1.06,1.59 2.98,4.52 4.26,6.51 1.28,1.99 2.9,4.23 3.59,4.98 0.69,0.75 1.77,1.84 2.39,2.41 0.62,0.57 1.86,1.29 2.75,1.59 0.89,0.3 2.4,0.47 3.35,0.38 0.95,-0.09 2.8,-0.55 4.12,-1.02 1.32,-0.47 3.07,-0.85 3.87,-0.85 h 1.92"
           id="path10" />
        <path
           class="cls-2"
           d="m 136.9,64.6 h -0.08 c 0,0 -0.8,0.11 -1.68,0.23 -0.88,0.12 -2.4,0.46 -3.38,0.76 -0.98,0.3 -2.66,1.15 -3.75,1.88 -1.09,0.73 -2.68,2 -3.53,2.84 -0.85,0.84 -2.11,2.3 -2.78,3.24 -0.67,0.94 -1.71,2.73 -2.31,3.97 -0.6,1.24 -1.69,1.78 -2.44,1.2 -0.75,-0.58 -1.91,-1.6 -2.57,-2.27 -0.66,-0.67 -1.71,-1.89 -2.33,-2.7 -0.62,-0.81 -1.53,-2.19 -2.03,-3.06 -0.5,-0.87 -1.49,-2.71 -2.19,-4.09 -0.7,-1.38 -2.14,-4.43 -3.19,-6.78 -1.05,-2.35 -2.69,-6.04 -3.65,-8.22 -0.96,-2.18 -2.34,-4.89 -3.08,-6.03 -0.74,-1.14 -1.5,-2.27 -1.7,-2.52 L 95.85,42.6"
           id="path11" />
        <path
           class="cls-2"
           d="m 99.37,78.21 c -0.07,-0.15 -0.88,-1.79 -1.8,-3.65 -0.92,-1.86 -2.33,-5.05 -3.16,-7.1 -0.83,-2.05 -1.93,-4.53 -2.47,-5.52 -0.54,-0.99 -1.5,-2.41 -2.14,-3.16 -0.64,-0.75 -1.88,-1.81 -2.73,-2.35 -0.85,-0.54 -2.21,-1.04 -3.03,-1.09 -0.82,-0.05 -1.97,0.14 -2.58,0.43 -0.61,0.29 -1.5,1.06 -1.98,1.71 -0.48,0.65 -1.23,1.81 -1.66,2.59 -0.43,0.78 -0.96,2.07 -1.18,2.87 -0.22,0.8 -0.51,1.83 -0.64,2.31 -0.13,0.48 -0.24,1.63 -0.24,2.57 0,0.94 0.07,2.32 0.16,3.06 0.09,0.74 0.3,1.87 0.48,2.52 0.18,0.65 0.57,1.88 0.89,2.73 0.32,0.85 0.84,2.06 1.18,2.67 0.34,0.61 1.02,1.61 1.52,2.2 0.5,0.59 1.51,1.5 2.25,2.01 0.74,0.51 1.91,1.12 2.6,1.34 0.69,0.22 1.82,0.44 2.51,0.48 0.69,0.04 1.86,0 2.6,-0.1 0.74,-0.1 2.04,-0.41 2.89,-0.69 0.85,-0.28 2.16,-0.82 2.9,-1.2 0.74,-0.38 1.72,-1.02 2.19,-1.42 0.47,-0.4 1,-1.04 1.18,-1.42 0.18,-0.38 0.34,-0.88 0.35,-1.1 0.01,-0.22 -0.04,-0.52 -0.11,-0.67 z"
           id="path12" />
        <path
           class="cls-2"
           d="m 136.82,88.02 1.02,0.14 c 0.56,0.07 3,1.87 5.41,3.99 2.41,2.12 4.48,3.92 4.58,4.01 0.1,0.09 2.22,0.78 4.69,1.53 2.47,0.75 4.64,1.36 4.81,1.34 0.17,-0.02 1.93,-0.16 3.9,-0.33 1.97,-0.17 9.11,-1.45 15.88,-2.86 6.77,-1.41 13.43,-2.64 14.83,-2.73 1.4,-0.09 2.96,0.26 3.49,0.77 0.53,0.51 0.86,1.63 0.73,2.49 -0.13,0.86 -0.89,2.87 -1.68,4.46 -0.79,1.59 -2.42,4.09 -3.61,5.55 -1.19,1.46 -5.61,6.03 -9.81,10.17 -4.2,4.14 -8.65,8.6 -9.89,9.92 -1.24,1.32 -6.25,8.49 -11.13,15.91 -4.88,7.42 -9.57,14.4 -10.4,15.51 -0.83,1.11 -2.09,2.24 -2.77,2.53 -0.68,0.29 -2.58,0.16 -4.22,-0.28 -1.64,-0.44 -3.7,-0.81 -4.58,-0.81 h -1.6"
           id="path13" />
        <path
           class="cls-2"
           d="m 157.65,99 -1.73,5.84 c -0.95,3.21 -2.24,8.44 -2.86,11.62 -0.62,3.18 -2.09,2.94 -3.27,-0.53 -1.18,-3.47 -2.15,-9.38 -2.15,-13.13 v -7.12"
           id="path14" />
        <path
           class="cls-2"
           d="m 136.66,36.54 h 0.03 c 0,0 2.26,0.17 4.99,0.38 2.73,0.21 7.57,0.85 10.77,1.42 3.2,0.57 8.03,1.59 10.74,2.25 2.71,0.66 6.93,1.59 9.38,2.06 2.45,0.47 5.77,0.18 7.39,-0.65 1.62,-0.83 4.44,-1.54 6.27,-1.58 1.83,-0.04 4.47,0.25 5.87,0.65 1.4,0.4 3.58,1.41 4.84,2.25 1.26,0.84 2.84,2.42 3.5,3.51 0.66,1.09 1.54,2.83 1.95,3.86 0.41,1.03 0.94,2.79 1.18,3.91 0.24,1.12 0.47,3.87 0.51,6.11 0.04,2.24 -0.06,5.9 -0.24,8.14 -0.18,2.24 -0.36,4.73 -0.4,5.55 -0.04,0.82 0.67,3.44 1.58,5.84 0.91,2.4 1.66,6.96 1.66,10.12 0,3.16 -0.23,6.98 -0.51,8.47 -0.28,1.49 -0.89,3.76 -1.36,5.06 -0.47,1.3 -1.34,3.27 -1.93,4.39 -0.59,1.12 -1.97,3.34 -3.06,4.93 -1.09,1.59 -2.68,3.7 -3.52,4.7 -0.84,1 -3.05,3.29 -4.9,5.11 -1.85,1.82 -5.3,4.89 -7.67,6.84 -2.37,1.95 -5.74,5.06 -7.48,6.92 -1.74,1.86 -5.04,5.63 -7.34,8.39 -2.3,2.76 -5.05,6.31 -6.1,7.91 -1.05,1.6 -2.98,4.52 -4.26,6.51 -1.28,1.99 -2.9,4.23 -3.59,4.98 -0.69,0.75 -1.76,1.84 -2.38,2.41 -0.62,0.57 -1.86,1.29 -2.76,1.58 -0.9,0.29 -2.41,0.46 -3.35,0.38 -0.94,-0.08 -2.8,-0.54 -4.12,-1.01 -1.32,-0.47 -3.17,-0.85 -4.1,-0.85 h -1.69"
           id="path15" />
        <path
           class="cls-2"
           d="m 136.66,64.61 h 0.04 c 0,0 0.78,0.1 1.69,0.22 0.91,0.12 2.44,0.46 3.42,0.77 0.98,0.31 2.66,1.15 3.75,1.88 1.09,0.73 2.68,2 3.53,2.84 0.85,0.84 2.11,2.3 2.78,3.24 0.67,0.94 1.72,2.73 2.31,3.97 0.59,1.24 1.68,1.78 2.43,1.2 0.75,-0.58 1.91,-1.6 2.57,-2.28 0.66,-0.68 1.71,-1.89 2.33,-2.7 0.62,-0.81 1.53,-2.19 2.03,-3.06 0.5,-0.87 1.49,-2.71 2.2,-4.1 0.71,-1.39 2.15,-4.43 3.19,-6.77 1.04,-2.34 2.68,-6.04 3.64,-8.22 0.96,-2.18 2.34,-4.89 3.08,-6.03 0.74,-1.14 1.5,-2.27 1.7,-2.52 l 0.36,-0.45"
           id="path16" />
        <path
           class="cls-2"
           d="m 174.18,78.21 c 0.07,-0.15 0.88,-1.78 1.79,-3.64 0.91,-1.86 2.33,-5.05 3.16,-7.1 0.83,-2.05 1.93,-4.53 2.47,-5.52 0.54,-0.99 1.5,-2.41 2.15,-3.16 0.65,-0.75 1.88,-1.81 2.74,-2.35 0.86,-0.54 2.22,-1.04 3.02,-1.1 0.8,-0.06 1.97,0.13 2.57,0.43 0.6,0.3 1.5,1.07 1.99,1.72 0.49,0.65 1.23,1.81 1.66,2.6 0.43,0.79 0.95,2.07 1.18,2.86 0.23,0.79 0.51,1.83 0.65,2.31 0.14,0.48 0.24,1.63 0.24,2.58 0,0.95 -0.07,2.32 -0.17,3.05 -0.1,0.73 -0.31,1.87 -0.49,2.51 -0.18,0.64 -0.57,1.87 -0.88,2.73 -0.31,0.86 -0.84,2.06 -1.18,2.68 -0.34,0.62 -1.03,1.61 -1.53,2.19 -0.5,0.58 -1.51,1.49 -2.25,2.01 -0.74,0.52 -1.9,1.12 -2.59,1.34 -0.69,0.22 -1.82,0.44 -2.52,0.48 -0.7,0.04 -1.86,0 -2.6,-0.1 -0.74,-0.1 -2.04,-0.41 -2.9,-0.69 -0.86,-0.28 -2.16,-0.82 -2.9,-1.2 -0.74,-0.38 -1.72,-1.02 -2.19,-1.42 -0.47,-0.4 -1,-1.04 -1.17,-1.42 -0.17,-0.38 -0.33,-0.88 -0.35,-1.1 -0.02,-0.22 0.03,-0.52 0.1,-0.67 z"
           id="path17" />
      </g>
    </g>
  </g>
  <g
     id="Ebene_6"
     transform="translate(-66.4,-36.03)">
    <line
       class="cls-4"
       x1="190.94"
       y1="126.88"
       x2="190.94"
       y2="107.14"
       id="line18" />
    <line
       class="cls-3"
       x1="179.72"
       y1="118.04"
       x2="179.72"
       y2="107.2"
       id="line19" />
    <line
       class="cls-4"
       x1="179.72"
       y1="126.94"
       x2="179.72"
       y2="118.04"
       id="line20" />
    <line
       class="cls-3"
       x1="168.58"
       y1="126.94"
       x2="168.58"
       y2="107.2"
       id="line21" />
    <line
       class="cls-3"
       x1="157.37"
       y1="126.94"
       x2="157.37"
       y2="107.2"
       id="line22" />
    <line
       class="cls-3"
       x1="146.25"
       y1="126.88"
       x2="146.25"
       y2="107.14"
       id="line23" />
    <line
       class="cls-3"
       x1="127.68"
       y1="126.94"
       x2="127.68"
       y2="107.2"
       id="line24" />
    <line
       class="cls-3"
       x1="116.54"
       y1="126.94"
       x2="116.54"
       y2="107.2"
       id="line25" />
    <line
       class="cls-3"
       x1="116.5"
       y1="126.94"
       x2="116.5"
       y2="107.2"
       id="line26" />
    <line
       class="cls-3"
       x1="105.3"
       y1="126.94"
       x2="105.3"
       y2="107.2"
       id="line27" />
    <line
       class="cls-3"
       x1="94.169998"
       y1="126.81"
       x2="94.169998"
       y2="107.07"
       id="line28" />
    <line
       class="cls-3"
       x1="94.169998"
       y1="118.37"
       x2="94.169998"
       y2="107.14"
       id="line29" />
    <line
       class="cls-4"
       x1="94.169998"
       y1="126.88"
       x2="94.169998"
       y2="118.37"
       id="line30" />
    <line
       class="cls-4"
       x1="82.949997"
       y1="126.94"
       x2="82.949997"
       y2="107.2"
       id="line31" />
    <polyline
       class="cls-4"
       points="170.68 127.14 184.88 127.14 191.93 127.14"
       id="polyline31" />
    <line
       class="cls-3"
       x1="140.85001"
       y1="127.14"
       x2="170.67999"
       y2="127.14"
       id="line32" />
    <line
       class="cls-3"
       x1="102.7"
       y1="127.14"
       x2="133.5"
       y2="127.14"
       id="line33" />
    <line
       class="cls-4"
       x1="81.910004"
       y1="127.14"
       x2="102.7"
       y2="127.14"
       id="line34" />
    <g
       id="g37">
      <path
         class="cls-1"
         d="m 153.34,180.56 c 1.05,1.43 3.24,4.02 4.86,5.76 1.62,1.74 1.62,2.33 0,1.3 -1.62,-1.03 -3.94,-2.71 -5.16,-3.74 -1.22,-1.03 -3.21,-3.04 -4.43,-4.47 -1.22,-1.43 -3.21,-4.02 -4.42,-5.77 -1.21,-1.75 -2.81,-4.73 -3.54,-6.63 -0.73,-1.9 -1.79,-4.82 -2.36,-6.48 -0.57,-1.66 -1.5,-1.66 -2.06,0 -0.56,1.66 -1.63,4.58 -2.36,6.48 -0.73,1.9 -2.32,4.88 -3.54,6.63 -1.22,1.75 -3.21,4.34 -4.43,5.77 -1.22,1.43 -3.21,3.44 -4.42,4.47 -1.21,1.03 -3.54,2.72 -5.16,3.74 -1.62,1.02 -1.62,0.44 0,-1.3 1.62,-1.74 3.81,-4.34 4.87,-5.76 1.06,-1.42 2.58,-4.08 3.39,-5.91 0.81,-1.83 2.07,-5.13 2.8,-7.35 0.73,-2.22 1.86,-6.43 2.51,-9.37 0.65,-2.94 1.51,-8.18 1.92,-11.67 0.41,-3.49 0.74,-14.06 0.74,-23.49 0,-9.43 1.19,-17.15 2.65,-17.15 h 5.4 c 0.76,0 1.38,7.72 1.38,17.15 0,9.43 0.33,20 0.74,23.49 0.41,3.49 1.27,8.74 1.92,11.67 0.65,2.93 1.78,7.15 2.5,9.37 0.72,2.22 1.99,5.53 2.8,7.35 0.81,1.82 2.34,4.48 3.39,5.91 z"
         id="path34" />
      <g
         id="g36">
        <path
           class="cls-2"
           d="m 139.23,105.62 h 1.38 c 0.76,0 1.38,7.72 1.38,17.15 0,9.43 0.33,20 0.74,23.49 0.41,3.49 1.27,8.74 1.92,11.67 0.65,2.93 1.78,7.15 2.5,9.37 0.72,2.22 1.99,5.53 2.8,7.35 0.81,1.82 2.34,4.48 3.39,5.91 1.05,1.43 3.24,4.02 4.86,5.76 1.62,1.74 1.62,2.33 0,1.3 -1.62,-1.03 -3.94,-2.71 -5.16,-3.74 -1.22,-1.03 -3.21,-3.04 -4.43,-4.47 -1.22,-1.43 -3.21,-4.02 -4.42,-5.77 -1.21,-1.75 -2.81,-4.73 -3.54,-6.63 -0.73,-1.9 -1.79,-4.82 -2.36,-6.48 l -1.03,-3.03"
           id="path35" />
        <path
           class="cls-2"
           d="m 139.23,105.62 h -4.03 c -1.46,0 -2.65,7.72 -2.65,17.15 0,9.43 -0.33,20 -0.74,23.49 -0.41,3.49 -1.27,8.74 -1.92,11.67 -0.65,2.93 -1.78,7.15 -2.51,9.37 -0.73,2.22 -1.99,5.53 -2.8,7.35 -0.81,1.82 -2.33,4.48 -3.39,5.91 -1.06,1.43 -3.24,4.02 -4.87,5.76 -1.63,1.74 -1.62,2.33 0,1.3 1.62,-1.03 3.94,-2.71 5.16,-3.74 1.22,-1.03 3.21,-3.04 4.42,-4.47 1.21,-1.43 3.21,-4.02 4.43,-5.77 1.22,-1.75 2.81,-4.73 3.54,-6.63 0.73,-1.9 1.79,-4.82 2.36,-6.48 l 1.03,-3.03"
           id="path36" />
      </g>
    </g>
  </g>
  <g
     id="Isolationsmodus"
     transform="translate(-66.4,-36.03)">
    <polygon
       points="134.57,166.07 127.07,167.79 129.43,158.57 136.29,158.57 "
       id="polygon37" />
    <polygon
       points="147.86,168.21 144.64,158.79 138.64,158.79 140.36,166.5 "
       id="polygon38" />
    <polygon
       class="cls-1"
       points="138.64,158.79 136.29,158.57 137.57,152.36 "
       id="polygon39" />
    <polygon
       class="cls-1"
       points="183.86,68.79 184.76,67.11 185.86,65.84 187.3,64.91 188.68,64.81 189.7,65.31 190.53,66.41 191.25,67.74 191.63,69.09 191.85,69.88 191.85,71.48 191.7,72.73 191.4,73.83 190.88,75.28 190.3,76.33 189.45,77.33 188.2,78.2 187.03,78.58 185.86,78.65 184.61,78.48 183.16,78 181.91,77.35 181.11,76.68 180.81,76.03 180.78,75.65 180.91,75.41 182.46,72.26 "
       id="polygon40" />
    <polygon
       class="cls-1"
       points="88.95,68.36 88.05,66.68 86.95,65.41 85.5,64.48 84.13,64.38 83.11,64.88 82.28,65.98 81.56,67.31 81.18,68.66 80.96,69.46 80.96,71.05 81.11,72.3 81.41,73.4 81.93,74.85 82.51,75.9 83.36,76.9 84.61,77.77 85.78,78.15 86.95,78.22 88.2,78.05 89.65,77.57 90.9,76.92 91.7,76.25 92,75.6 92.02,75.23 91.9,74.98 90.35,71.83 "
       id="polygon41" />
  </g>
</svg>
