<?xml version="1.0" encoding="UTF-8" standalone="no"?>
<svg
   viewBox="0 0 140.75999 153.53"
   version="1.1"
   id="svg53"
   sodipodi:docname="with_eyes1_1.svg"
   width="140.75999"
   height="153.53"
   inkscape:version="1.3.2 (091e20e, 2023-11-25)"
   xmlns:inkscape="http://www.inkscape.org/namespaces/inkscape"
   xmlns:sodipodi="http://sodipodi.sourceforge.net/DTD/sodipodi-0.dtd"
   xmlns="http://www.w3.org/2000/svg"
   xmlns:svg="http://www.w3.org/2000/svg">
  <sodipodi:namedview
     id="namedview53"
     pagecolor="#ffffff"
     bordercolor="#000000"
     borderopacity="0.25"
     inkscape:showpageshadow="2"
     inkscape:pageopacity="0.0"
     inkscape:pagecheckerboard="0"
     inkscape:deskcolor="#d1d1d1"
     inkscape:zoom="0.95600745"
     inkscape:cx="85.77339"
     inkscape:cy="69.037119"
     inkscape:window-width="1344"
     inkscape:window-height="449"
     inkscape:window-x="0"
     inkscape:window-y="38"
     inkscape:window-maximized="0"
     inkscape:current-layer="svg53" />
  <defs
     id="defs1">
    <style
       id="style1">.cls-1{fill:#fff;}.cls-2,.cls-3,.cls-4{stroke-miterlimit:10;}.cls-2,.cls-3,.cls-4,.cls-5{fill:none;}.cls-2,.cls-4,.cls-5{stroke:#1d1d1b;}.cls-3{stroke:#fff;}.cls-3,.cls-4{stroke-width:2px;}.cls-5{stroke-linecap:round;stroke-linejoin:round;stroke-width:.5px;}.cls-6{fill:#1d1d1b;}</style>
  </defs>
  <g
     id="Ebene_1"
     transform="translate(-45.09,-54.78)">
    <g
       id="g4">
      <path
         class="cls-6"
         d="m 131.83,200.49 c 1.05,1.43 3.24,4.02 4.86,5.76 1.62,1.74 1.62,2.33 0,1.3 -1.62,-1.03 -3.94,-2.71 -5.16,-3.74 -1.22,-1.03 -3.21,-3.04 -4.43,-4.47 -1.22,-1.43 -3.21,-4.02 -4.42,-5.77 -1.21,-1.75 -2.81,-4.73 -3.54,-6.63 -0.73,-1.9 -1.79,-4.82 -2.36,-6.48 -0.57,-1.66 -1.5,-1.66 -2.06,0 -0.56,1.66 -1.63,4.58 -2.36,6.48 -0.73,1.9 -2.32,4.88 -3.54,6.63 -1.22,1.75 -3.21,4.34 -4.43,5.77 -1.22,1.43 -3.21,3.44 -4.42,4.47 -1.21,1.03 -3.54,2.72 -5.16,3.74 -1.62,1.02 -1.62,0.44 0,-1.3 1.62,-1.74 3.81,-4.34 4.87,-5.76 1.06,-1.42 2.58,-4.08 3.39,-5.91 0.81,-1.83 2.07,-5.13 2.8,-7.35 0.73,-2.22 1.86,-6.43 2.51,-9.37 0.65,-2.94 1.51,-8.18 1.92,-11.67 0.41,-3.49 0.74,-14.06 0.74,-23.49 0,-9.43 1.19,-17.15 2.65,-17.15 h 5.4 c 0.76,0 1.38,7.72 1.38,17.15 0,9.43 0.33,20 0.74,23.49 0.41,3.49 1.27,8.74 1.92,11.67 0.65,2.93 1.78,7.15 2.5,9.37 0.72,2.22 1.99,5.53 2.8,7.35 0.81,1.82 2.34,4.48 3.39,5.91 z"
         id="path1" />
      <g
         id="g3">
        <path
           class="cls-5"
           d="m 117.72,125.55 h 1.38 c 0.76,0 1.38,7.72 1.38,17.15 0,9.43 0.33,20 0.74,23.49 0.41,3.49 1.27,8.74 1.92,11.67 0.65,2.93 1.78,7.15 2.5,9.37 0.72,2.22 1.99,5.53 2.8,7.35 0.81,1.82 2.34,4.48 3.39,5.91 1.05,1.43 3.24,4.02 4.86,5.76 1.62,1.74 1.62,2.33 0,1.3 -1.62,-1.03 -3.94,-2.71 -5.16,-3.74 -1.22,-1.03 -3.21,-3.04 -4.43,-4.47 -1.22,-1.43 -3.21,-4.02 -4.42,-5.77 -1.21,-1.75 -2.81,-4.73 -3.54,-6.63 -0.73,-1.9 -1.79,-4.82 -2.36,-6.48 l -1.03,-3.03"
           id="path2" />
        <path
           class="cls-5"
           d="m 117.72,125.55 h -4.03 c -1.46,0 -2.65,7.72 -2.65,17.15 0,9.43 -0.33,20 -0.74,23.49 -0.41,3.49 -1.27,8.74 -1.92,11.67 -0.65,2.93 -1.78,7.15 -2.51,9.37 -0.73,2.22 -1.99,5.53 -2.8,7.35 -0.81,1.82 -2.33,4.48 -3.39,5.91 -1.06,1.43 -3.24,4.02 -4.87,5.76 -1.63,1.74 -1.62,2.33 0,1.3 1.62,-1.03 3.94,-2.71 5.16,-3.74 1.22,-1.03 3.21,-3.04 4.42,-4.47 1.21,-1.43 3.21,-4.02 4.43,-5.77 1.22,-1.75 2.81,-4.73 3.54,-6.63 0.73,-1.9 1.79,-4.82 2.36,-6.48 l 1.03,-3.03"
           id="path3" />
      </g>
    </g>
  </g>
  <g
     id="Ebene_4"
     transform="translate(-45.09,-54.78)">
    <g
       id="g17">
      <g
         id="g6">
        <path
           class="cls-6"
           d="m 115.23,185.63 c 0,0 -0.66,0 -1.46,0 -0.8,0 -2.54,0.38 -3.87,0.85 -1.33,0.47 -3.18,0.93 -4.12,1.02 -0.94,0.09 -2.45,-0.08 -3.34,-0.38 -0.89,-0.3 -2.14,-1.01 -2.76,-1.59 -0.62,-0.58 -1.69,-1.66 -2.39,-2.41 -0.7,-0.75 -2.31,-2.99 -3.59,-4.98 -1.28,-1.99 -3.2,-4.92 -4.26,-6.51 -1.06,-1.59 -3.81,-5.15 -6.11,-7.9 -2.3,-2.75 -5.6,-6.52 -7.34,-8.38 -1.74,-1.86 -5.1,-4.97 -7.47,-6.92 -2.37,-1.95 -5.82,-5.03 -7.66,-6.85 -1.84,-1.82 -4.05,-4.11 -4.91,-5.11 -0.86,-1 -2.44,-3.11 -3.53,-4.7 -1.09,-1.59 -2.46,-3.81 -3.05,-4.93 -0.59,-1.12 -1.46,-3.1 -1.93,-4.39 -0.47,-1.29 -1.09,-3.58 -1.37,-5.06 -0.28,-1.48 -0.51,-5.3 -0.51,-8.47 0,-3.17 0.75,-7.72 1.66,-10.12 0.91,-2.4 1.63,-5.03 1.59,-5.84 -0.04,-0.81 -0.23,-3.31 -0.41,-5.55 -0.18,-2.24 -0.29,-5.9 -0.25,-8.14 0.04,-2.24 0.27,-4.99 0.51,-6.11 0.24,-1.12 0.77,-2.88 1.18,-3.91 0.41,-1.03 1.29,-2.77 1.95,-3.86 0.66,-1.09 2.24,-2.67 3.51,-3.51 1.27,-0.84 3.45,-1.85 4.85,-2.25 1.4,-0.4 4.04,-0.69 5.86,-0.65 1.82,0.04 4.65,0.76 6.26,1.58 1.61,0.82 3.55,2.43 4.28,3.57 0.73,1.14 2.12,3.85 3.08,6.03 0.96,2.18 2.6,5.88 3.65,8.22 1.05,2.34 2.48,5.39 3.19,6.77 0.71,1.38 1.69,3.23 2.19,4.1 0.5,0.87 1.42,2.24 2.03,3.06 0.61,0.82 1.67,2.03 2.33,2.7 0.66,0.67 1.82,1.7 2.57,2.27 0.75,0.57 1.85,0.03 2.44,-1.2 0.59,-1.23 1.63,-3.02 2.31,-3.97 0.68,-0.95 1.93,-2.4 2.78,-3.24 0.85,-0.84 2.45,-2.12 3.53,-2.84 1.08,-0.72 2.78,-1.57 3.75,-1.88 0.97,-0.31 2.49,-0.65 3.38,-0.77 0.89,-0.12 2.35,-0.11 3.26,0 0.91,0.11 2.44,0.46 3.41,0.77 0.97,0.31 2.66,1.15 3.75,1.88 1.09,0.73 2.68,2 3.53,2.84 0.85,0.84 2.11,2.3 2.78,3.24 0.67,0.94 1.72,2.73 2.31,3.96 0.59,1.23 1.68,1.78 2.43,1.2 0.75,-0.58 1.91,-1.6 2.57,-2.28 0.66,-0.68 1.71,-1.89 2.33,-2.7 0.62,-0.81 1.53,-2.19 2.04,-3.05 0.51,-0.86 1.49,-2.71 2.2,-4.1 0.71,-1.39 2.14,-4.43 3.19,-6.78 1.05,-2.35 2.68,-6.04 3.64,-8.22 0.96,-2.18 2.34,-4.89 3.08,-6.03 0.74,-1.14 2.67,-2.74 4.28,-3.57 1.61,-0.83 4.44,-1.54 6.27,-1.58 1.83,-0.04 4.47,0.25 5.87,0.65 1.4,0.4 3.58,1.41 4.84,2.25 1.26,0.84 2.84,2.42 3.5,3.51 0.66,1.09 1.54,2.83 1.95,3.86 0.41,1.03 0.94,2.79 1.18,3.91 0.24,1.12 0.47,3.87 0.51,6.11 0.04,2.24 -0.06,5.9 -0.24,8.14 -0.18,2.24 -0.36,4.73 -0.4,5.55 -0.04,0.82 0.67,3.44 1.58,5.84 0.91,2.4 1.66,6.96 1.66,10.12 0,3.16 -0.23,6.98 -0.51,8.46 -0.28,1.48 -0.89,3.76 -1.36,5.06 -0.47,1.3 -1.34,3.27 -1.93,4.39 -0.59,1.12 -1.97,3.34 -3.06,4.93 -1.09,1.59 -2.68,3.7 -3.53,4.7 -0.85,1 -3.05,3.29 -4.9,5.11 -1.85,1.82 -5.3,4.89 -7.67,6.84 -2.37,1.95 -5.74,5.06 -7.48,6.92 -1.74,1.86 -5.04,5.63 -7.34,8.39 -2.3,2.76 -5.05,6.31 -6.1,7.91 -1.05,1.6 -2.98,4.52 -4.26,6.51 -1.28,1.99 -2.9,4.23 -3.59,4.98 -0.69,0.75 -1.76,1.84 -2.38,2.41 -0.62,0.57 -1.86,1.29 -2.76,1.58 -0.9,0.29 -2.41,0.46 -3.35,0.38 -0.94,-0.08 -2.8,-0.54 -4.12,-1.02 -1.32,-0.48 -3.17,-0.85 -4.1,-0.85 -0.93,0 -1.69,0 -1.69,0 z m 11.28,-70.88 c -0.1,-0.09 -2.17,-1.9 -4.58,-4.02 -2.41,-2.12 -4.85,-3.91 -5.41,-3.98 -0.56,-0.07 -1.04,-0.14 -1.06,-0.14 -0.02,0 -0.5,0.06 -1.06,0.13 -0.56,0.07 -2.99,1.87 -5.41,3.99 -2.42,2.12 -4.48,3.93 -4.58,4.01 -0.1,0.08 -2.21,0.78 -4.68,1.53 -2.47,0.75 -4.64,1.36 -4.82,1.34 -0.18,-0.02 -1.93,-0.16 -3.9,-0.33 -1.97,-0.17 -9.11,-1.45 -15.88,-2.86 -6.77,-1.41 -13.43,-2.64 -14.83,-2.73 -1.4,-0.09 -2.96,0.26 -3.49,0.76 -0.53,0.5 -0.86,1.63 -0.73,2.49 0.13,0.86 0.89,2.87 1.69,4.46 0.8,1.59 2.42,4.09 3.62,5.55 1.2,1.46 5.6,6.03 9.8,10.16 4.2,4.13 8.65,8.6 9.88,9.93 1.23,1.33 6.25,8.48 11.13,15.91 4.88,7.43 9.57,14.4 10.4,15.51 0.83,1.11 2.09,2.24 2.78,2.53 0.69,0.29 2.59,0.16 4.22,-0.28 1.63,-0.44 3.54,-0.81 4.25,-0.81 0.71,0 1.27,0 1.27,0 0,0 0.72,0 1.6,0 0.88,0 2.94,0.36 4.58,0.81 1.64,0.45 3.54,0.57 4.22,0.28 0.68,-0.29 1.93,-1.42 2.77,-2.53 0.84,-1.11 5.52,-8.08 10.41,-15.51 4.88,-7.43 9.89,-14.58 11.13,-15.91 1.24,-1.33 5.69,-5.79 9.89,-9.93 4.2,-4.14 8.61,-8.71 9.81,-10.17 1.2,-1.46 2.82,-3.95 3.61,-5.55 0.79,-1.6 1.55,-3.6 1.68,-4.46 0.13,-0.86 -0.19,-1.98 -0.72,-2.49 -0.53,-0.51 -2.1,-0.85 -3.5,-0.77 -1.4,0.08 -8.06,1.32 -14.83,2.73 -6.77,1.41 -13.91,2.7 -15.88,2.86 -1.97,0.16 -3.72,0.31 -3.89,0.32 -0.17,0.01 -2.34,-0.59 -4.82,-1.34 -2.48,-0.75 -4.59,-1.44 -4.69,-1.53 z m 49.8,-25.28 c 0.09,-0.74 0.16,-2.11 0.16,-3.05 0,-0.94 -0.11,-2.1 -0.25,-2.57 -0.14,-0.47 -0.42,-1.51 -0.65,-2.31 -0.23,-0.8 -0.75,-2.08 -1.17,-2.86 -0.42,-0.78 -1.17,-1.95 -1.66,-2.6 -0.49,-0.65 -1.38,-1.42 -1.99,-1.72 -0.61,-0.3 -1.76,-0.49 -2.57,-0.43 -0.81,0.06 -2.17,0.56 -3.02,1.1 -0.85,0.54 -2.09,1.6 -2.74,2.36 -0.65,0.76 -1.61,2.17 -2.15,3.16 -0.54,0.99 -1.64,3.47 -2.47,5.52 -0.83,2.05 -2.25,5.24 -3.16,7.1 -0.91,1.86 -1.72,3.49 -1.8,3.64 -0.08,0.15 -0.12,0.45 -0.1,0.67 0.02,0.22 0.17,0.72 0.35,1.1 0.18,0.38 0.7,1.02 1.18,1.42 0.48,0.4 1.46,1.04 2.19,1.42 0.73,0.38 2.04,0.92 2.89,1.2 0.85,0.28 2.16,0.59 2.9,0.7 0.74,0.11 1.91,0.15 2.6,0.1 0.69,-0.05 1.82,-0.26 2.51,-0.48 0.69,-0.22 1.86,-0.82 2.6,-1.34 0.74,-0.52 1.75,-1.42 2.25,-2.01 0.5,-0.59 1.19,-1.58 1.53,-2.2 0.34,-0.62 0.87,-1.82 1.18,-2.68 0.31,-0.86 0.7,-2.08 0.88,-2.73 0.18,-0.65 0.39,-1.78 0.49,-2.52 z m -98.14,8 c 0.01,-0.22 -0.04,-0.52 -0.11,-0.67 -0.07,-0.15 -0.88,-1.79 -1.8,-3.64 -0.92,-1.85 -2.33,-5.05 -3.16,-7.1 -0.83,-2.05 -1.93,-4.53 -2.47,-5.52 -0.54,-0.99 -1.5,-2.41 -2.15,-3.16 -0.65,-0.75 -1.88,-1.81 -2.73,-2.35 -0.85,-0.54 -2.21,-1.04 -3.02,-1.1 -0.81,-0.06 -1.97,0.14 -2.57,0.43 -0.6,0.29 -1.5,1.06 -1.98,1.71 -0.48,0.65 -1.23,1.81 -1.66,2.59 -0.43,0.78 -0.96,2.07 -1.18,2.87 -0.22,0.8 -0.51,1.83 -0.64,2.3 -0.13,0.47 -0.24,1.63 -0.24,2.57 0,0.94 0.07,2.32 0.16,3.06 0.09,0.74 0.3,1.87 0.48,2.52 0.18,0.65 0.57,1.88 0.89,2.73 0.32,0.85 0.84,2.06 1.18,2.68 0.34,0.62 1.02,1.61 1.52,2.2 0.5,0.59 1.51,1.5 2.25,2.01 0.74,0.51 1.91,1.12 2.6,1.34 0.69,0.22 1.82,0.44 2.52,0.48 0.7,0.04 1.86,0 2.59,-0.1 0.73,-0.1 2.04,-0.41 2.9,-0.69 0.86,-0.28 2.16,-0.82 2.9,-1.2 0.74,-0.38 1.72,-1.02 2.19,-1.42 0.47,-0.4 1,-1.04 1.18,-1.42 0.18,-0.38 0.34,-0.88 0.35,-1.1 z"
           id="path4" />
        <path
           class="cls-6"
           d="m 136.01,117.63 c 0.17,-0.02 -0.47,2.6 -1.42,5.81 -0.95,3.21 -2.24,8.44 -2.86,11.62 -0.62,3.18 -2.09,2.94 -3.27,-0.53 -1.18,-3.47 -2.15,-9.38 -2.15,-13.13 0,-3.75 0.09,-6.74 0.19,-6.64 0.1,0.1 2.22,0.78 4.69,1.53 2.47,0.75 4.64,1.36 4.82,1.34 z"
           id="path5" />
        <path
           class="cls-6"
           d="m 104.41,114.75 c 0.1,-0.09 0.18,2.9 0.18,6.65 0,3.75 -0.97,9.65 -2.15,13.12 -1.18,3.47 -2.65,3.72 -3.27,0.53 -0.62,-3.19 -1.91,-8.41 -2.86,-11.62 -0.95,-3.21 -1.59,-5.83 -1.41,-5.81 0.18,0.02 2.34,-0.59 4.82,-1.34 2.48,-0.75 4.58,-1.44 4.68,-1.53 z"
           id="path6" />
      </g>
      <g
         id="g16">
        <path
           class="cls-2"
           d="m 115.42,106.61 -1.01,0.14 c -0.56,0.07 -2.99,1.87 -5.41,3.99 -2.42,2.12 -4.48,3.93 -4.58,4.01 -0.1,0.08 -2.21,0.78 -4.68,1.53 -2.47,0.75 -4.64,1.36 -4.82,1.34 -0.18,-0.02 -1.93,-0.16 -3.9,-0.33 -1.97,-0.17 -9.11,-1.45 -15.88,-2.86 -6.77,-1.41 -13.43,-2.64 -14.83,-2.73 -1.4,-0.09 -2.96,0.26 -3.49,0.76 -0.53,0.5 -0.86,1.63 -0.73,2.49 0.13,0.86 0.89,2.87 1.69,4.46 0.8,1.59 2.42,4.09 3.62,5.55 1.2,1.46 5.6,6.03 9.8,10.16 4.2,4.13 8.65,8.6 9.88,9.93 1.23,1.33 6.25,8.48 11.13,15.91 4.88,7.43 9.57,14.4 10.4,15.51 0.83,1.11 2.09,2.24 2.78,2.53 0.69,0.29 2.59,0.16 4.22,-0.28 1.63,-0.44 3.54,-0.81 4.25,-0.81 h 1.94"
           id="path7" />
        <path
           class="cls-2"
           d="m 94.59,117.59 1.74,5.84 c 0.95,3.21 2.24,8.44 2.86,11.62 0.62,3.18 2.09,2.94 3.27,-0.53 1.18,-3.47 2.15,-9.38 2.15,-13.12 v -7.12"
           id="path8" />
        <path
           class="cls-2"
           d="m 75.24,62.09 -2.94,-1.5 c -1.62,-0.82 -4.44,-1.54 -6.26,-1.58 -1.82,-0.04 -4.47,0.25 -5.86,0.65 -1.39,0.4 -3.58,1.41 -4.85,2.25 -1.27,0.84 -2.85,2.42 -3.51,3.51 -0.66,1.09 -1.54,2.83 -1.95,3.86 -0.41,1.03 -0.94,2.79 -1.18,3.91 -0.24,1.12 -0.47,3.87 -0.51,6.11 -0.04,2.24 0.07,5.9 0.25,8.14 0.18,2.24 0.36,4.73 0.41,5.55 0.05,0.82 -0.67,3.44 -1.59,5.84 -0.92,2.4 -1.66,6.96 -1.66,10.12 0,3.16 0.23,6.98 0.51,8.47 0.28,1.49 0.9,3.77 1.37,5.06 0.47,1.29 1.34,3.28 1.93,4.39 0.59,1.11 1.96,3.34 3.05,4.93 1.09,1.59 2.68,3.7 3.53,4.7 0.85,1 3.06,3.29 4.91,5.11 1.85,1.82 5.29,4.89 7.66,6.85 2.37,1.96 5.73,5.07 7.47,6.92 1.74,1.85 5.04,5.63 7.34,8.38 2.3,2.75 5.05,6.31 6.11,7.9 1.06,1.59 2.98,4.52 4.26,6.51 1.28,1.99 2.9,4.23 3.59,4.98 0.69,0.75 1.77,1.84 2.39,2.41 0.62,0.57 1.86,1.29 2.76,1.59 0.9,0.3 2.4,0.47 3.34,0.38 0.94,-0.09 2.8,-0.55 4.12,-1.02 1.32,-0.47 3.07,-0.85 3.87,-0.85 h 1.92"
           id="path9" />
        <path
           class="cls-2"
           d="m 115.58,83.2 h -0.08 c 0,0 -0.8,0.11 -1.68,0.23 -0.88,0.12 -2.4,0.46 -3.38,0.77 -0.98,0.31 -2.66,1.15 -3.75,1.88 -1.09,0.73 -2.68,2 -3.53,2.84 -0.85,0.84 -2.11,2.3 -2.78,3.24 -0.67,0.94 -1.71,2.73 -2.31,3.97 -0.6,1.24 -1.69,1.78 -2.44,1.2 -0.75,-0.58 -1.91,-1.6 -2.57,-2.27 -0.66,-0.67 -1.71,-1.89 -2.33,-2.7 -0.62,-0.81 -1.53,-2.19 -2.03,-3.06 -0.5,-0.87 -1.49,-2.71 -2.19,-4.1 -0.7,-1.39 -2.14,-4.43 -3.19,-6.77 -1.05,-2.34 -2.69,-6.04 -3.65,-8.22 -0.96,-2.18 -2.34,-4.89 -3.08,-6.03 -0.74,-1.14 -1.98,-2.23 -2.76,-2.43 l -1.42,-0.36"
           id="path10" />
        <path
           class="cls-2"
           d="m 78.05,96.81 c -0.07,-0.15 -0.88,-1.79 -1.8,-3.64 -0.92,-1.85 -2.33,-5.05 -3.16,-7.1 -0.83,-2.05 -1.93,-4.53 -2.47,-5.52 -0.54,-0.99 -1.5,-2.41 -2.15,-3.16 -0.65,-0.75 -1.88,-1.81 -2.73,-2.35 -0.85,-0.54 -2.21,-1.04 -3.02,-1.1 -0.81,-0.06 -1.97,0.14 -2.57,0.43 -0.6,0.29 -1.5,1.06 -1.98,1.71 -0.48,0.65 -1.23,1.81 -1.66,2.59 -0.43,0.78 -0.96,2.07 -1.18,2.87 -0.22,0.8 -0.51,1.83 -0.64,2.3 -0.13,0.47 -0.24,1.63 -0.24,2.57 0,0.94 0.07,2.32 0.16,3.06 0.09,0.74 0.3,1.87 0.48,2.52 0.18,0.65 0.57,1.88 0.89,2.73 0.32,0.85 0.84,2.06 1.18,2.68 0.34,0.62 1.02,1.61 1.52,2.2 0.5,0.59 1.51,1.5 2.25,2.01 0.74,0.51 1.91,1.12 2.6,1.34 0.69,0.22 1.82,0.44 2.52,0.48 0.7,0.04 1.86,0 2.59,-0.1 0.73,-0.1 2.04,-0.41 2.9,-0.69 0.86,-0.28 2.16,-0.82 2.9,-1.2 0.74,-0.38 1.72,-1.02 2.19,-1.42 0.47,-0.4 1,-1.04 1.18,-1.42 0.18,-0.38 0.34,-0.88 0.35,-1.1 0.01,-0.22 -0.04,-0.52 -0.11,-0.67 z"
           id="path11" />
        <path
           class="cls-2"
           d="m 115.5,106.62 1.02,0.14 c 0.56,0.07 3,1.87 5.41,3.98 2.41,2.11 4.48,3.92 4.58,4.02 0.1,0.1 2.22,0.78 4.69,1.53 2.47,0.75 4.64,1.36 4.82,1.34 0.18,-0.02 1.93,-0.16 3.89,-0.32 1.96,-0.16 9.11,-1.45 15.88,-2.86 6.77,-1.41 13.43,-2.64 14.83,-2.73 1.4,-0.09 2.96,0.26 3.5,0.77 0.54,0.51 0.86,1.63 0.72,2.49 -0.14,0.86 -0.89,2.87 -1.68,4.46 -0.79,1.59 -2.42,4.09 -3.61,5.55 -1.19,1.46 -5.61,6.03 -9.81,10.17 -4.2,4.14 -8.65,8.6 -9.89,9.93 -1.24,1.33 -6.25,8.48 -11.13,15.91 -4.88,7.43 -9.57,14.4 -10.41,15.51 -0.84,1.11 -2.09,2.24 -2.77,2.53 -0.68,0.29 -2.58,0.16 -4.22,-0.28 -1.64,-0.44 -3.7,-0.81 -4.58,-0.81 h -1.6"
           id="path12" />
        <path
           class="cls-2"
           d="m 136.33,117.6 -1.74,5.84 c -0.95,3.21 -2.24,8.44 -2.86,11.62 -0.62,3.18 -2.09,2.94 -3.27,-0.53 -1.18,-3.47 -2.15,-9.38 -2.15,-13.13 v -7.12"
           id="path13" />
        <path
           class="cls-2"
           d="m 154.21,64.72 0.74,-1.31 c 0.4,-0.72 2.06,-1.98 3.68,-2.81 1.62,-0.83 4.44,-1.54 6.27,-1.58 1.83,-0.04 4.47,0.25 5.87,0.65 1.4,0.4 3.58,1.41 4.84,2.25 1.26,0.84 2.84,2.42 3.5,3.51 0.66,1.09 1.54,2.83 1.95,3.86 0.41,1.03 0.94,2.79 1.18,3.91 0.24,1.12 0.47,3.87 0.51,6.11 0.04,2.24 -0.06,5.9 -0.24,8.14 -0.18,2.24 -0.36,4.73 -0.4,5.55 -0.04,0.82 0.67,3.44 1.58,5.84 0.91,2.4 1.66,6.96 1.66,10.12 0,3.16 -0.23,6.98 -0.51,8.46 -0.28,1.48 -0.89,3.76 -1.36,5.06 -0.47,1.3 -1.34,3.27 -1.93,4.39 -0.59,1.12 -1.97,3.34 -3.06,4.93 -1.09,1.59 -2.68,3.7 -3.53,4.7 -0.85,1 -3.05,3.29 -4.9,5.11 -1.85,1.82 -5.3,4.89 -7.67,6.84 -2.37,1.95 -5.74,5.06 -7.48,6.92 -1.74,1.86 -5.04,5.63 -7.34,8.39 -2.3,2.76 -5.05,6.31 -6.1,7.91 -1.05,1.6 -2.98,4.52 -4.26,6.51 -1.28,1.99 -2.9,4.23 -3.59,4.98 -0.69,0.75 -1.76,1.84 -2.38,2.41 -0.62,0.57 -1.86,1.29 -2.76,1.58 -0.9,0.29 -2.41,0.46 -3.35,0.38 -0.94,-0.08 -2.8,-0.54 -4.12,-1.02 -1.32,-0.48 -3.17,-0.85 -4.1,-0.85 h -1.69"
           id="path14" />
        <path
           class="cls-2"
           d="m 115.34,83.21 h 0.04 c 0,0 0.78,0.1 1.69,0.22 0.91,0.12 2.44,0.46 3.41,0.77 0.97,0.31 2.66,1.15 3.75,1.88 1.09,0.73 2.68,2 3.53,2.84 0.85,0.84 2.11,2.3 2.78,3.24 0.67,0.94 1.72,2.73 2.31,3.96 0.59,1.23 1.68,1.78 2.43,1.2 0.75,-0.58 1.91,-1.6 2.57,-2.28 0.66,-0.68 1.71,-1.89 2.33,-2.7 0.62,-0.81 1.53,-2.19 2.04,-3.05 0.51,-0.86 1.49,-2.71 2.2,-4.1 0.71,-1.39 2.14,-4.43 3.19,-6.78 1.05,-2.35 2.68,-6.04 3.64,-8.22 0.96,-2.18 2.34,-4.89 3.08,-6.03 0.74,-1.14 1.5,-2.27 1.7,-2.52 l 0.36,-0.45"
           id="path15" />
        <path
           class="cls-2"
           d="m 152.86,96.81 c 0.07,-0.15 0.88,-1.78 1.8,-3.64 0.92,-1.86 2.33,-5.05 3.16,-7.1 0.83,-2.05 1.93,-4.53 2.47,-5.52 0.54,-0.99 1.5,-2.41 2.15,-3.16 0.65,-0.75 1.88,-1.81 2.74,-2.36 0.86,-0.55 2.22,-1.04 3.02,-1.1 0.8,-0.06 1.97,0.13 2.57,0.43 0.6,0.3 1.5,1.07 1.99,1.72 0.49,0.65 1.23,1.81 1.66,2.6 0.43,0.79 0.95,2.07 1.17,2.86 0.22,0.79 0.51,1.83 0.65,2.31 0.14,0.48 0.25,1.63 0.25,2.57 0,0.94 -0.07,2.32 -0.16,3.05 -0.09,0.73 -0.31,1.87 -0.49,2.52 -0.18,0.65 -0.57,1.87 -0.88,2.73 -0.31,0.86 -0.84,2.06 -1.18,2.68 -0.34,0.62 -1.03,1.61 -1.53,2.2 -0.5,0.59 -1.51,1.49 -2.25,2.01 -0.74,0.52 -1.9,1.12 -2.6,1.34 -0.7,0.22 -1.82,0.44 -2.51,0.48 -0.69,0.04 -1.86,0 -2.6,-0.1 -0.74,-0.1 -2.04,-0.41 -2.9,-0.7 -0.86,-0.29 -2.16,-0.82 -2.89,-1.2 -0.73,-0.38 -1.72,-1.02 -2.19,-1.42 -0.47,-0.4 -1,-1.04 -1.18,-1.42 -0.18,-0.38 -0.33,-0.88 -0.35,-1.1 -0.02,-0.22 0.03,-0.52 0.1,-0.67 z"
           id="path16" />
      </g>
    </g>
  </g>
  <g
     id="Ebene_6"
     transform="translate(-45.09,-54.78)">
    <line
       class="cls-4"
       x1="105.74"
       y1="147.08"
       x2="105.74"
       y2="127.34"
       id="line17" />
    <line
       class="cls-4"
       x1="94.599998"
       y1="147.08"
       x2="94.599998"
       y2="127.34"
       id="line18" />
    <line
       class="cls-4"
       x1="94.559998"
       y1="147.08"
       x2="94.559998"
       y2="127.34"
       id="line19" />
    <line
       class="cls-4"
       x1="83.360001"
       y1="145.91"
       x2="83.360001"
       y2="127.34"
       id="line20" />
    <line
       class="cls-3"
       x1="83.360001"
       y1="146.33"
       x2="83.360001"
       y2="146.12"
       id="line21" />
    <line
       class="cls-4"
       x1="72.230003"
       y1="146.95"
       x2="72.230003"
       y2="127.21"
       id="line22" />
    <line
       class="cls-4"
       x1="72.239998"
       y1="131.49001"
       x2="72.239998"
       y2="127.29"
       id="line23" />
    <line
       class="cls-3"
       x1="72.239998"
       y1="147.03"
       x2="72.239998"
       y2="136.37"
       id="line24" />
    <line
       class="cls-4"
       x1="61.009998"
       y1="147.08"
       x2="61.009998"
       y2="137.44"
       id="line25" />
    <polygon
       class="cls-1"
       points="71.22,136.41 71.24,134.47 73.26,136.44 "
       id="polygon25" />
    <polygon
       class="cls-6"
       points="72.88,131.56 73.23,131.49 73.23,131.93 "
       id="polygon26" />
    <polygon
       class="cls-1"
       points="62.02,143.37 62.01,141.39 60.04,141.33 60.01,141.46 "
       id="polygon27" />
    <polygon
       class="cls-6"
       points="60.4,137.44 60.02,136.96 60.01,136.96 60.01,137.44 "
       id="polygon28" />
    <polygon
       class="cls-1"
       points="82.37,147.51 84.36,148.37 82.37,145.84 "
       id="polygon29" />
    <line
       class="cls-3"
       x1="67.040001"
       y1="147.28"
       x2="86.599998"
       y2="147.28"
       id="line29" />
    <line
       class="cls-4"
       x1="59.970001"
       y1="147.28"
       x2="68.279999"
       y2="147.28"
       id="line30" />
    <line
       class="cls-3"
       x1="61.009998"
       y1="141.45"
       x2="61.009998"
       y2="127.26"
       id="line31" />
    <polygon
       class="cls-1"
       points="68.49,148.26 68.77,146.79 68.32,146.29 65.24,146.29 67.56,148.27 "
       id="polygon31" />
    <polygon
       class="cls-6"
       points="82.33,145.84 84.32,145.83 84.21,148.33 "
       id="polygon32" />
    <line
       class="cls-4"
       x1="84.199997"
       y1="147.28999"
       x2="111.56"
       y2="147.28"
       id="line32" />
    <polygon
       class="cls-6"
       points="84.36,146.35 84.22,146.3 84.28,145.8 84.33,145.81 84.36,145.91 "
       id="polygon33" />
    <line
       class="cls-4"
       x1="125.12"
       y1="147.08"
       x2="125.12"
       y2="127.34"
       id="line33" />
    <line
       class="cls-4"
       x1="136.25999"
       y1="147.08"
       x2="136.25999"
       y2="127.34"
       id="line34" />
    <line
       class="cls-4"
       x1="136.28999"
       y1="147.08"
       x2="136.28999"
       y2="127.34"
       id="line35" />
    <line
       class="cls-4"
       x1="147.5"
       y1="145.91"
       x2="147.5"
       y2="127.34"
       id="line36" />
    <line
       class="cls-3"
       x1="147.5"
       y1="146.33"
       x2="147.5"
       y2="146.12"
       id="line37" />
    <line
       class="cls-4"
       x1="158.63"
       y1="146.95"
       x2="158.63"
       y2="127.21"
       id="line38" />
    <line
       class="cls-4"
       x1="158.62"
       y1="131.49001"
       x2="158.62"
       y2="127.29"
       id="line39" />
    <line
       class="cls-3"
       x1="158.62"
       y1="147.03"
       x2="158.62"
       y2="136.37"
       id="line40" />
    <line
       class="cls-4"
       x1="169.84"
       y1="147.08"
       x2="169.84"
       y2="137.44"
       id="line41" />
    <polygon
       class="cls-1"
       points="159.63,136.41 159.62,134.47 157.6,136.44 "
       id="polygon41" />
    <polygon
       class="cls-6"
       points="157.98,131.56 157.62,131.49 157.62,131.93 "
       id="polygon42" />
    <polygon
       class="cls-1"
       points="168.83,143.37 168.85,141.39 170.82,141.33 170.84,141.46 "
       id="polygon43" />
    <polygon
       class="cls-6"
       points="170.45,137.44 170.84,136.96 170.84,137.44 "
       id="polygon44" />
    <polygon
       class="cls-1"
       points="148.49,147.51 146.49,148.37 148.49,145.84 "
       id="polygon45" />
    <line
       class="cls-3"
       x1="163.81"
       y1="147.28"
       x2="144.25999"
       y2="147.28"
       id="line45" />
    <line
       class="cls-4"
       x1="170.88"
       y1="147.28"
       x2="162.58"
       y2="147.28"
       id="line46" />
    <line
       class="cls-3"
       x1="169.84"
       y1="141.45"
       x2="169.84"
       y2="127.26"
       id="line47" />
    <polygon
       class="cls-1"
       points="162.36,148.26 162.08,146.79 162.54,146.29 165.61,146.29 163.29,148.27 "
       id="polygon47" />
    <polygon
       class="cls-6"
       points="148.52,145.84 146.53,145.83 146.64,148.33 "
       id="polygon48" />
    <line
       class="cls-4"
       x1="146.64999"
       y1="147.28999"
       x2="119.29"
       y2="147.28"
       id="line48" />
    <polygon
       class="cls-6"
       points="146.5,146.35 146.63,146.3 146.58,145.8 146.52,145.81 146.5,145.91 "
       id="polygon49" />
  </g>
  <g
     id="Isolationsmodus"
     transform="translate(-45.09,-54.78)">
    <polygon
       class="cls-1"
       points="113.06,186 105.56,187.71 107.92,178.5 114.78,178.5 "
       id="polygon50" />
    <polygon
       class="cls-1"
       points="126.35,188.14 123.13,178.71 117.13,178.71 118.85,186.43 "
       id="polygon51" />
    <polygon
       class="cls-1"
       points="117.13,178.71 114.78,178.5 116.06,172.29 "
       id="polygon52" />
    <rect
       class="cls-6"
       x="62.360001"
       y="82.290001"
       width="3.21"
       height="15.11"
       id="rect52" />
    <rect
       class="cls-6"
       x="164.25"
       y="82.290001"
       width="3.21"
       height="15.11"
       id="rect53" />
  </g>
  <g
     id="Ebene_8"
     transform="translate(-45.09,-54.78)">
    <polyline
       class="cls-5"
       points="74.38 61.98 83.28 60.27 93.13 57.86 104.76 55.77 114.48 55.03 124.45 55.78 136.07 57.87 145.93 60.28 154.82 61.99"
       id="polyline53" />
  </g>
</svg>
